<svg width="120" height="120" viewBox="0 0 120 120" fill="none" xmlns="http://www.w3.org/2000/svg">
<path d="M95.2783 50.4901L95.5005 51.6171L96.6464 51.6964C108.875 52.543 118.5 62.6034 118.5 75C118.5 87.9716 107.972 98.5 95 98.5H30C14.2784 98.5 1.5 85.7216 1.5 70C1.5 55.3234 12.6149 43.2112 26.9086 41.6916L27.7087 41.6065L28.0804 40.8929C34.0827 29.3685 46.1319 21.5 60 21.5C77.4692 21.5 92.0141 33.9291 95.2783 50.4901ZM35 66.5H48.5V85V86.5H50H70H71.5V85V66.5H85H88.6213L86.0607 63.9393L61.0607 38.9393L60 37.8787L58.9393 38.9393L33.9393 63.9393L31.3787 66.5H35Z" stroke="#76A1CC" stroke-width="3"/>
</svg>
