<svg width="26" height="45" viewBox="0 0 26 45" fill="none" xmlns="http://www.w3.org/2000/svg">
<path d="M13.9961 19.75C8.19843 18.275 6.33399 16.75 6.33399 14.375C6.33399 11.65 8.91356 9.75 13.2299 9.75C17.776 9.75 19.4617 11.875 19.6149 15H25.2593C25.0805 10.7 22.3988 6.75 17.0609 5.475V0H9.39882V5.4C4.44401 6.45 0.459724 9.6 0.459724 14.425C0.459724 20.2 5.33792 23.075 12.4637 24.75C18.8487 26.25 20.1257 28.45 20.1257 30.775C20.1257 32.5 18.8743 35.25 13.2299 35.25C7.96856 35.25 5.8998 32.95 5.61886 30H0C0.306483 35.475 4.49509 38.55 9.39882 39.575V45H17.0609V39.625C22.0413 38.7 26 35.875 26 30.75C26 23.65 19.7937 21.225 13.9961 19.75Z" fill="#709DCA"/>
</svg>
