<svg width="91" height="101" viewBox="0 0 91 101" fill="none" xmlns="http://www.w3.org/2000/svg">
<path d="M74.1287 11.3655L74.11 11.3548L74.0908 11.345C64.2814 6.28697 55.7561 4.12501 45.5505 4.12501C35.4065 4.12501 25.7627 6.53385 16.9898 11.3557C16.2828 11.7371 15.3621 11.4909 14.912 10.7354C14.5269 10.0062 14.8114 9.06273 15.5247 8.67639L15.5256 8.67589C24.7559 3.66371 34.8768 1.08334 45.5505 1.08334C56.1166 1.08334 65.3377 3.40858 75.4919 8.63471C76.2595 9.0349 76.5179 9.93444 76.1312 10.6483L76.1234 10.6627L76.116 10.6774C75.8292 11.2511 75.3153 11.5363 74.7921 11.5363C74.553 11.5363 74.3222 11.4761 74.1287 11.3655ZM19.9417 19.4255L19.9436 19.4245C35.4881 11.4047 55.4145 11.3556 71.0073 19.3747L71.008 19.3751C78.4272 23.1836 84.6573 28.5725 89.5563 35.451L89.5621 35.459C90.0413 36.1179 89.8912 37.0947 89.1948 37.5791C88.4717 38.0821 87.5373 37.9135 87.0576 37.2239L87.0577 37.2239L87.0505 37.2138C82.4225 30.7347 76.5536 25.636 69.6013 22.0825C54.8463 14.525 36.0029 14.5237 21.2952 22.1343C14.2922 25.739 8.42472 30.8882 3.79841 37.365L3.769 37.4062L3.7439 37.4501C3.55342 37.7835 3.16985 38.005 2.64589 38.005C2.34842 38.005 2.03959 37.9175 1.7475 37.7252C1.06508 37.2446 0.89894 36.3161 1.39771 35.596C6.29756 28.6681 12.5268 23.2318 19.9417 19.4255ZM33.135 98.4327L33.1174 98.4132L33.0988 98.3946C28.7649 94.0606 26.457 91.3106 23.1328 85.3073L23.1301 85.3024C19.7474 79.2723 17.9642 71.8833 17.9642 63.9108C17.9642 49.5347 30.2759 37.7363 45.5001 37.7363C60.7242 37.7363 73.0359 49.5347 73.0359 63.9108C73.0359 64.7702 72.3744 65.4317 71.5151 65.4317C70.6557 65.4317 69.9942 64.7702 69.9942 63.9108C69.9942 51.1025 58.9525 40.7779 45.5001 40.7779C32.0476 40.7779 21.0059 51.1025 21.0059 63.9108C21.0059 71.3128 22.65 78.1921 25.8222 83.8101C29.104 89.7066 31.386 92.2493 35.3025 96.217C35.8798 96.8308 35.886 97.7661 35.321 98.3868C34.9457 98.717 34.5371 98.8579 34.1563 98.8579C33.7481 98.8579 33.3761 98.7006 33.135 98.4327ZM55.2416 85.2191L55.237 85.216C47.9876 80.302 43.6767 72.3377 43.6767 63.9108C43.6767 63.0515 44.3382 62.39 45.1976 62.39C46.0569 62.39 46.7184 63.0515 46.7184 63.9108C46.7184 71.3648 50.5243 78.3749 56.9391 82.6876C60.712 85.2383 65.1004 86.4388 70.3051 86.4388C71.5773 86.4388 73.6518 86.2817 75.7208 85.9197L75.7305 85.9179C76.5335 85.7692 77.3313 86.2992 77.4881 87.1775L77.4893 87.1838C77.638 87.9868 77.108 88.7846 76.2297 88.9414L76.2297 88.9413L76.216 88.944C73.4276 89.4821 70.976 89.5309 70.3051 89.5309C64.4765 89.5309 59.3871 88.0632 55.2416 85.2191ZM11.4399 82.4624L11.443 82.4702C11.7517 83.273 11.3437 84.1311 10.5871 84.3929L10.5711 84.3985L10.5552 84.4046C9.77498 84.7047 8.89488 84.2772 8.62844 83.5371L8.62852 83.5371L8.62418 83.5255C6.19405 77.0286 5.00714 70.5929 5.00714 63.9108C5.00714 57.9896 6.14161 52.6438 8.33866 48.0051C14.8696 34.3061 29.3788 25.3842 45.2984 25.3842C67.7357 25.3842 85.8921 42.6814 85.8921 63.8604C85.8921 71.4329 79.4261 77.6829 71.3638 77.6829C63.3015 77.6829 56.8355 71.4329 56.8355 63.8604C56.8355 57.8499 51.6331 53.0796 45.3488 53.0796C39.0645 53.0796 33.8621 57.8499 33.8621 63.8604C33.8621 72.7452 37.2939 81.0684 43.5859 87.3084L43.5867 87.3092C48.5067 92.1774 53.2486 94.8808 60.5097 96.8892L60.5175 96.8914L60.5253 96.8934C61.3208 97.0997 61.7912 97.9388 61.5753 98.7409L61.5689 98.7645L61.5637 98.7884C61.4174 99.4613 60.7878 99.9167 60.1713 99.9167C60.1002 99.9167 59.9522 99.8936 59.7698 99.8485C51.9133 97.6728 46.8255 94.7799 41.463 89.5162C34.5957 82.6967 30.8205 73.6263 30.8205 63.9108C30.8205 56.3384 37.2865 50.0883 45.3488 50.0883C53.4111 50.0883 59.8771 56.3384 59.8771 63.9108C59.8771 69.9214 65.0795 74.6917 71.3638 74.6917C77.6481 74.6917 82.8505 69.9214 82.8505 63.9108C82.8505 44.2959 65.9601 28.4763 45.2984 28.4763C30.6201 28.4763 17.1468 36.641 11.0713 49.3618C9.03076 53.6004 7.99839 58.5416 7.99839 63.9108C7.99839 67.9229 8.36071 74.251 11.4399 82.4624Z" stroke="#76A1CC" stroke-width="2"/>
</svg>
