<svg width="106" height="96" viewBox="0 0 120 96" fill="none" xmlns="http://www.w3.org/2000/svg">
<path d="M64.982 33.3957L64.7307 34.6H65.9609H96.3636C101.115 34.6 105 38.4758 105 43.2V52.8C105 53.9082 104.788 54.9319 104.4 55.9239L89.8558 89.749L89.852 89.7581C88.5594 92.8486 85.4981 95 81.9091 95H38.5455C33.7942 95 29.9091 91.1242 29.9091 86.4V38.4C29.9091 36.0335 30.8574 33.8917 32.4478 32.35L32.453 32.345L32.4581 32.3399L63.4593 1.40875L67.857 5.74844C67.8575 5.74899 67.8581 5.74954 67.8586 5.75009C68.9689 6.85705 69.6702 8.41074 69.6826 10.0829L69.5478 11.5146L64.982 33.3957ZM18.2727 39.4V95H1V39.4H18.2727Z" stroke="#76A1CC" stroke-width="2"/>
</svg>
