<svg width="84" height="110" viewBox="0 0 84 110" fill="none" xmlns="http://www.w3.org/2000/svg">
<path d="M66.75 36.6667V38.1667H68.25H73.5C78.4498 38.1667 82.5 42.2126 82.5 47.1429V99.5238C82.5 104.454 78.4498 108.5 73.5 108.5H10.5C5.55021 108.5 1.5 104.454 1.5 99.5238V47.1429C1.5 42.2126 5.55021 38.1667 10.5 38.1667H58.275H59.775V36.6667V26.1905C59.775 16.4017 51.8027 8.45238 42 8.45238C32.7032 8.45238 25.0527 15.6024 24.2879 24.6905H17.295C18.073 11.7621 28.8403 1.5 42 1.5C55.6648 1.5 66.75 12.565 66.75 26.1905V36.6667ZM73.5 101.024H75V99.5238V47.1429V45.6429H73.5H10.5H9V47.1429V99.5238V101.024H10.5H73.5ZM51 73.3333C51 78.2636 46.9498 82.3095 42 82.3095C37.0502 82.3095 33 78.2636 33 73.3333C33 68.4031 37.0502 64.3571 42 64.3571C46.9498 64.3571 51 68.4031 51 73.3333Z" stroke="#76A1CC" stroke-width="3"/>
</svg>
