<svg width="45" height="47" viewBox="0 0 45 47" fill="none" xmlns="http://www.w3.org/2000/svg">
<path d="M39.7129 25.7913C39.7997 25.0569 39.8576 24.2931 39.8576 23.5C39.8576 22.7069 39.7997 21.9431 39.684 21.2088L44.573 17.3313C45.007 16.9788 45.1227 16.3325 44.8623 15.8331L40.2336 7.69625C39.9443 7.1675 39.3368 6.99125 38.8161 7.1675L33.0592 9.5175C31.8441 8.5775 30.5713 7.81375 29.1537 7.22625L28.2859 0.99875C28.1991 0.41125 27.7073 0 27.1287 0H17.8713C17.2927 0 16.8299 0.41125 16.7431 0.99875L15.8752 7.22625C14.4577 7.81375 13.1559 8.60687 11.9698 9.5175L6.21283 7.1675C5.6921 6.96188 5.08459 7.1675 4.7953 7.69625L0.166619 15.8331C-0.122673 16.3619 -0.0069561 16.9788 0.455912 17.3313L5.34496 21.2088C5.22924 21.9431 5.14245 22.7362 5.14245 23.5C5.14245 24.2638 5.20031 25.0569 5.31603 25.7913L0.426982 29.6688C-0.00695673 30.0213 -0.122673 30.6675 0.13769 31.1669L4.76637 39.3037C5.05566 39.8325 5.66318 40.0088 6.1839 39.8325L11.9408 37.4825C13.1559 38.4225 14.4287 39.1862 15.8463 39.7738L16.7141 46.0013C16.8299 46.5888 17.2927 47 17.8713 47H27.1287C27.7073 47 28.1991 46.5888 28.2569 46.0013L29.1248 39.7738C30.5423 39.1862 31.8442 38.3931 33.0303 37.4825L38.7872 39.8325C39.3079 40.0381 39.9154 39.8325 40.2047 39.3037L44.8334 31.1669C45.1227 30.6381 45.007 30.0213 44.5441 29.6688L39.7129 25.7913ZM22.5 32.3125C17.7267 32.3125 13.8212 28.3469 13.8212 23.5C13.8212 18.6531 17.7267 14.6875 22.5 14.6875C27.2733 14.6875 31.1788 18.6531 31.1788 23.5C31.1788 28.3469 27.2733 32.3125 22.5 32.3125Z" fill="#709DCA"/>
</svg>
